<mxfile host="app.diagrams.net" modified="2024-01-31T14:46:27.935Z" agent="Mozilla/5.0 (Windows NT 10.0; Win64; x64) AppleWebKit/537.36 (KHTML, like Gecko) Chrome/121.0.0.0 Safari/537.36 Edg/121.0.0.0" etag="INvxXSbf08R4-Datlpx2" version="23.0.2" type="device">
  <diagram name="第 1 页" id="uVkd4KvrKCw7aUiNvQXj">
    <mxGraphModel dx="1788" dy="671" grid="1" gridSize="10" guides="1" tooltips="1" connect="1" arrows="1" fold="1" page="1" pageScale="1" pageWidth="827" pageHeight="1169" math="0" shadow="0">
      <root>
        <mxCell id="0" />
        <mxCell id="1" parent="0" />
        <mxCell id="yH9x7RMEsDiriQ-Wmc9Q-15" value="&lt;font style=&quot;font-size: 20px;&quot;&gt;rootPos&lt;/font&gt;" style="swimlane;childLayout=stackLayout;resizeParent=1;resizeParentMax=0;horizontal=1;startSize=30;horizontalStack=0;html=1;fontFamily=Times New Roman;fontStyle=0;spacing=2;" parent="1" vertex="1">
          <mxGeometry x="-700" y="80" width="160" height="300" as="geometry">
            <mxRectangle x="110" y="580" width="70" height="30" as="alternateBounds" />
          </mxGeometry>
        </mxCell>
        <mxCell id="KlAe3lSp9QUHbHIh8HM2-10" style="edgeStyle=orthogonalEdgeStyle;rounded=0;orthogonalLoop=1;jettySize=auto;html=1;exitX=0;exitY=0.5;exitDx=0;exitDy=0;entryX=0;entryY=0.5;entryDx=0;entryDy=0;spacing=2;" edge="1" parent="yH9x7RMEsDiriQ-Wmc9Q-15" source="yH9x7RMEsDiriQ-Wmc9Q-16" target="KlAe3lSp9QUHbHIh8HM2-4">
          <mxGeometry relative="1" as="geometry" />
        </mxCell>
        <mxCell id="yH9x7RMEsDiriQ-Wmc9Q-16" value="&lt;span style=&quot;&quot;&gt;&lt;font style=&quot;font-size: 20px;&quot;&gt;rearTreeNode N&lt;/font&gt;&lt;/span&gt;" style="swimlane;startSize=480;horizontal=0;html=1;fontFamily=Times New Roman;fontStyle=0;spacing=2;" parent="yH9x7RMEsDiriQ-Wmc9Q-15" vertex="1" collapsed="1">
          <mxGeometry y="30" width="160" height="30" as="geometry">
            <mxRectangle y="40" width="320" height="120" as="alternateBounds" />
          </mxGeometry>
        </mxCell>
        <mxCell id="yH9x7RMEsDiriQ-Wmc9Q-17" value="&lt;font style=&quot;font-size: 20px;&quot;&gt;Node 0&lt;/font&gt;" style="swimlane;startSize=480;horizontal=0;html=1;align=center;fontFamily=Times New Roman;fontStyle=0;spacing=2;" parent="yH9x7RMEsDiriQ-Wmc9Q-15" vertex="1" collapsed="1">
          <mxGeometry y="60" width="160" height="30" as="geometry">
            <mxRectangle y="140" width="480" height="120" as="alternateBounds" />
          </mxGeometry>
        </mxCell>
        <mxCell id="KlAe3lSp9QUHbHIh8HM2-1" value="&lt;font style=&quot;font-size: 20px;&quot;&gt;Node 1&lt;/font&gt;" style="swimlane;startSize=480;horizontal=0;html=1;align=center;fontFamily=Times New Roman;fontStyle=0;spacing=2;" vertex="1" collapsed="1" parent="yH9x7RMEsDiriQ-Wmc9Q-15">
          <mxGeometry y="90" width="160" height="30" as="geometry">
            <mxRectangle y="140" width="480" height="120" as="alternateBounds" />
          </mxGeometry>
        </mxCell>
        <mxCell id="KlAe3lSp9QUHbHIh8HM2-3" value="&lt;font style=&quot;font-size: 20px;&quot;&gt;…&lt;/font&gt;" style="swimlane;startSize=480;horizontal=0;html=1;align=center;fontFamily=Times New Roman;fontStyle=0;spacing=2;" vertex="1" collapsed="1" parent="yH9x7RMEsDiriQ-Wmc9Q-15">
          <mxGeometry y="120" width="160" height="30" as="geometry">
            <mxRectangle y="140" width="480" height="120" as="alternateBounds" />
          </mxGeometry>
        </mxCell>
        <mxCell id="KlAe3lSp9QUHbHIh8HM2-2" style="swimlane;startSize=480;horizontal=0;html=1;align=left;fontFamily=Times New Roman;fontStyle=0" vertex="1" collapsed="1" parent="KlAe3lSp9QUHbHIh8HM2-3">
          <mxGeometry x="116" y="-20" width="260" height="40" as="geometry">
            <mxRectangle y="140" width="480" height="120" as="alternateBounds" />
          </mxGeometry>
        </mxCell>
        <mxCell id="KlAe3lSp9QUHbHIh8HM2-4" value="&lt;font style=&quot;font-size: 20px;&quot;&gt;Node N&lt;/font&gt;" style="swimlane;startSize=480;horizontal=0;html=1;align=center;fontFamily=Times New Roman;fontStyle=0;spacing=2;" vertex="1" collapsed="1" parent="yH9x7RMEsDiriQ-Wmc9Q-15">
          <mxGeometry y="150" width="160" height="30" as="geometry">
            <mxRectangle y="140" width="480" height="120" as="alternateBounds" />
          </mxGeometry>
        </mxCell>
        <mxCell id="KlAe3lSp9QUHbHIh8HM2-11" style="edgeStyle=orthogonalEdgeStyle;rounded=0;orthogonalLoop=1;jettySize=auto;html=1;exitX=0;exitY=0.5;exitDx=0;exitDy=0;entryX=0;entryY=0.5;entryDx=0;entryDy=0;spacing=2;" edge="1" parent="yH9x7RMEsDiriQ-Wmc9Q-15" source="KlAe3lSp9QUHbHIh8HM2-7" target="KlAe3lSp9QUHbHIh8HM2-9">
          <mxGeometry relative="1" as="geometry" />
        </mxCell>
        <mxCell id="KlAe3lSp9QUHbHIh8HM2-7" value="tree Node EmptySize M" style="swimlane;startSize=480;horizontal=0;html=1;align=center;fontFamily=Times New Roman;fontStyle=0;fontSize=15;spacing=2;" vertex="1" collapsed="1" parent="yH9x7RMEsDiriQ-Wmc9Q-15">
          <mxGeometry y="180" width="160" height="30" as="geometry">
            <mxRectangle y="140" width="480" height="120" as="alternateBounds" />
          </mxGeometry>
        </mxCell>
        <mxCell id="KlAe3lSp9QUHbHIh8HM2-6" value="d&lt;sub&gt;1&lt;/sub&gt;" style="swimlane;startSize=480;horizontal=0;html=1;align=center;fontFamily=Times New Roman;fontStyle=0;fontSize=20;spacing=2;" vertex="1" collapsed="1" parent="yH9x7RMEsDiriQ-Wmc9Q-15">
          <mxGeometry y="210" width="160" height="30" as="geometry">
            <mxRectangle y="140" width="480" height="120" as="alternateBounds" />
          </mxGeometry>
        </mxCell>
        <mxCell id="KlAe3lSp9QUHbHIh8HM2-5" value="…" style="swimlane;startSize=480;horizontal=0;html=1;align=center;fontFamily=Times New Roman;fontStyle=0;fontSize=20;spacing=2;" vertex="1" collapsed="1" parent="yH9x7RMEsDiriQ-Wmc9Q-15">
          <mxGeometry y="240" width="160" height="30" as="geometry">
            <mxRectangle y="140" width="480" height="120" as="alternateBounds" />
          </mxGeometry>
        </mxCell>
        <mxCell id="KlAe3lSp9QUHbHIh8HM2-9" value="d&lt;sub&gt;m&lt;/sub&gt;" style="swimlane;startSize=480;horizontal=0;html=1;align=center;fontFamily=Times New Roman;fontStyle=0;fontSize=20;spacing=2;" vertex="1" collapsed="1" parent="yH9x7RMEsDiriQ-Wmc9Q-15">
          <mxGeometry y="270" width="160" height="30" as="geometry">
            <mxRectangle y="140" width="480" height="120" as="alternateBounds" />
          </mxGeometry>
        </mxCell>
        <mxCell id="KlAe3lSp9QUHbHIh8HM2-43" value="" style="group" vertex="1" connectable="0" parent="1">
          <mxGeometry x="-370" y="500" width="300" height="360" as="geometry" />
        </mxCell>
        <mxCell id="KlAe3lSp9QUHbHIh8HM2-12" value="&lt;span style=&quot;font-size: 20px;&quot;&gt;rearLeaf&amp;nbsp; n&lt;/span&gt;" style="swimlane;childLayout=stackLayout;resizeParent=1;resizeParentMax=0;horizontal=1;startSize=30;horizontalStack=0;html=1;fontFamily=Times New Roman;fontStyle=0;spacing=2;" vertex="1" parent="KlAe3lSp9QUHbHIh8HM2-43">
          <mxGeometry x="20" y="-410" width="160" height="270" as="geometry">
            <mxRectangle x="110" y="580" width="70" height="30" as="alternateBounds" />
          </mxGeometry>
        </mxCell>
        <mxCell id="KlAe3lSp9QUHbHIh8HM2-13" style="edgeStyle=orthogonalEdgeStyle;rounded=0;orthogonalLoop=1;jettySize=auto;html=1;exitX=0;exitY=0.5;exitDx=0;exitDy=0;entryX=0;entryY=0.5;entryDx=0;entryDy=0;spacing=2;" edge="1" parent="KlAe3lSp9QUHbHIh8HM2-12" source="KlAe3lSp9QUHbHIh8HM2-14" target="KlAe3lSp9QUHbHIh8HM2-19">
          <mxGeometry relative="1" as="geometry" />
        </mxCell>
        <mxCell id="KlAe3lSp9QUHbHIh8HM2-14" value="&lt;span style=&quot;&quot;&gt;&lt;font style=&quot;font-size: 20px;&quot;&gt;sizeData&lt;/font&gt;&lt;/span&gt;" style="swimlane;startSize=480;horizontal=0;html=1;fontFamily=Times New Roman;fontStyle=0;spacing=2;" vertex="1" collapsed="1" parent="KlAe3lSp9QUHbHIh8HM2-12">
          <mxGeometry y="30" width="160" height="30" as="geometry">
            <mxRectangle y="40" width="320" height="120" as="alternateBounds" />
          </mxGeometry>
        </mxCell>
        <mxCell id="KlAe3lSp9QUHbHIh8HM2-15" value="&lt;font style=&quot;font-size: 20px;&quot;&gt;LeafNode&amp;nbsp; 1&lt;/font&gt;" style="swimlane;startSize=480;horizontal=0;html=1;align=center;fontFamily=Times New Roman;fontStyle=0;spacing=2;" vertex="1" collapsed="1" parent="KlAe3lSp9QUHbHIh8HM2-12">
          <mxGeometry y="60" width="160" height="30" as="geometry">
            <mxRectangle y="140" width="480" height="120" as="alternateBounds" />
          </mxGeometry>
        </mxCell>
        <mxCell id="KlAe3lSp9QUHbHIh8HM2-16" value="&lt;span style=&quot;font-size: 20px;&quot;&gt;…&lt;/span&gt;" style="swimlane;startSize=480;horizontal=0;html=1;align=center;fontFamily=Times New Roman;fontStyle=0;spacing=2;" vertex="1" collapsed="1" parent="KlAe3lSp9QUHbHIh8HM2-12">
          <mxGeometry y="90" width="160" height="30" as="geometry">
            <mxRectangle y="140" width="480" height="120" as="alternateBounds" />
          </mxGeometry>
        </mxCell>
        <mxCell id="KlAe3lSp9QUHbHIh8HM2-17" value="&lt;font style=&quot;font-size: 20px;&quot;&gt;LeafNode&amp;nbsp; n&lt;/font&gt;" style="swimlane;startSize=480;horizontal=0;html=1;align=center;fontFamily=Times New Roman;fontStyle=0;spacing=2;" vertex="1" collapsed="1" parent="KlAe3lSp9QUHbHIh8HM2-12">
          <mxGeometry y="120" width="160" height="30" as="geometry">
            <mxRectangle y="140" width="480" height="120" as="alternateBounds" />
          </mxGeometry>
        </mxCell>
        <mxCell id="KlAe3lSp9QUHbHIh8HM2-18" style="swimlane;startSize=480;horizontal=0;html=1;align=left;fontFamily=Times New Roman;fontStyle=0" vertex="1" collapsed="1" parent="KlAe3lSp9QUHbHIh8HM2-17">
          <mxGeometry x="116" y="-20" width="260" height="40" as="geometry">
            <mxRectangle y="140" width="480" height="120" as="alternateBounds" />
          </mxGeometry>
        </mxCell>
        <mxCell id="KlAe3lSp9QUHbHIh8HM2-19" value="&lt;font style=&quot;font-size: 20px;&quot;&gt;LeafEmptySize&amp;nbsp; m&lt;/font&gt;" style="swimlane;startSize=480;horizontal=0;html=1;align=center;fontFamily=Times New Roman;fontStyle=0;spacing=2;" vertex="1" collapsed="1" parent="KlAe3lSp9QUHbHIh8HM2-12">
          <mxGeometry y="150" width="160" height="30" as="geometry">
            <mxRectangle y="140" width="480" height="120" as="alternateBounds" />
          </mxGeometry>
        </mxCell>
        <mxCell id="KlAe3lSp9QUHbHIh8HM2-22" value="d&lt;sub&gt;1&lt;/sub&gt;" style="swimlane;startSize=480;horizontal=0;html=1;align=center;fontFamily=Times New Roman;fontStyle=0;fontSize=20;spacing=2;" vertex="1" collapsed="1" parent="KlAe3lSp9QUHbHIh8HM2-12">
          <mxGeometry y="180" width="160" height="30" as="geometry">
            <mxRectangle y="140" width="480" height="120" as="alternateBounds" />
          </mxGeometry>
        </mxCell>
        <mxCell id="KlAe3lSp9QUHbHIh8HM2-23" value="…" style="swimlane;startSize=480;horizontal=0;html=1;align=center;fontFamily=Times New Roman;fontStyle=0;fontSize=20;spacing=2;" vertex="1" collapsed="1" parent="KlAe3lSp9QUHbHIh8HM2-12">
          <mxGeometry y="210" width="160" height="30" as="geometry">
            <mxRectangle y="140" width="480" height="120" as="alternateBounds" />
          </mxGeometry>
        </mxCell>
        <mxCell id="KlAe3lSp9QUHbHIh8HM2-24" value="d&lt;sub&gt;m&lt;/sub&gt;" style="swimlane;startSize=480;horizontal=0;html=1;align=center;fontFamily=Times New Roman;fontStyle=0;fontSize=20;spacing=2;" vertex="1" collapsed="1" parent="KlAe3lSp9QUHbHIh8HM2-12">
          <mxGeometry y="240" width="160" height="30" as="geometry">
            <mxRectangle y="140" width="480" height="120" as="alternateBounds" />
          </mxGeometry>
        </mxCell>
        <mxCell id="KlAe3lSp9QUHbHIh8HM2-47" value="" style="group" vertex="1" connectable="0" parent="KlAe3lSp9QUHbHIh8HM2-43">
          <mxGeometry x="180" y="-404" width="120" height="254" as="geometry" />
        </mxCell>
        <mxCell id="KlAe3lSp9QUHbHIh8HM2-35" value="&lt;font size=&quot;1&quot; face=&quot;simsun&quot;&gt;&lt;b style=&quot;&quot;&gt;叶子结点个数n&lt;/b&gt;&lt;/font&gt;" style="text;html=1;strokeColor=none;fillColor=none;align=center;verticalAlign=middle;whiteSpace=wrap;rounded=0;" vertex="1" parent="KlAe3lSp9QUHbHIh8HM2-47">
          <mxGeometry x="4" width="91.43" height="19.2" as="geometry" />
        </mxCell>
        <mxCell id="KlAe3lSp9QUHbHIh8HM2-36" value="&lt;font size=&quot;1&quot; face=&quot;simsun&quot;&gt;&lt;b style=&quot;&quot;&gt;记录数量&lt;/b&gt;&lt;/font&gt;" style="text;html=1;strokeColor=none;fillColor=none;align=center;verticalAlign=middle;whiteSpace=wrap;rounded=0;" vertex="1" parent="KlAe3lSp9QUHbHIh8HM2-47">
          <mxGeometry x="1" y="30.8" width="61.43" height="19.2" as="geometry" />
        </mxCell>
        <mxCell id="KlAe3lSp9QUHbHIh8HM2-37" value="" style="shape=curlyBracket;whiteSpace=wrap;html=1;rounded=1;flipH=1;labelPosition=right;verticalLabelPosition=middle;align=left;verticalAlign=middle;size=0.5;" vertex="1" parent="KlAe3lSp9QUHbHIh8HM2-47">
          <mxGeometry y="62.0232558139535" width="17.142857142857146" height="66.45348837209303" as="geometry" />
        </mxCell>
        <mxCell id="KlAe3lSp9QUHbHIh8HM2-38" value="&lt;font size=&quot;1&quot; face=&quot;simsun&quot;&gt;&lt;b style=&quot;&quot;&gt;叶子结点信息&lt;/b&gt;&lt;/font&gt;" style="text;html=1;strokeColor=none;fillColor=none;align=center;verticalAlign=middle;whiteSpace=wrap;rounded=0;" vertex="1" parent="KlAe3lSp9QUHbHIh8HM2-47">
          <mxGeometry x="15" y="86.02" width="82.86" height="18.46" as="geometry" />
        </mxCell>
        <mxCell id="KlAe3lSp9QUHbHIh8HM2-39" value="&lt;font size=&quot;1&quot; face=&quot;simsun&quot;&gt;&lt;b style=&quot;&quot;&gt;删除的叶子个数&lt;/b&gt;&lt;/font&gt;" style="text;html=1;strokeColor=none;fillColor=none;align=center;verticalAlign=middle;whiteSpace=wrap;rounded=0;" vertex="1" parent="KlAe3lSp9QUHbHIh8HM2-47">
          <mxGeometry x="-7" y="150.6279069767442" width="120" height="19.197674418604656" as="geometry" />
        </mxCell>
        <mxCell id="KlAe3lSp9QUHbHIh8HM2-41" value="" style="shape=curlyBracket;whiteSpace=wrap;html=1;rounded=1;flipH=1;labelPosition=right;verticalLabelPosition=middle;align=left;verticalAlign=middle;size=0.5;" vertex="1" parent="KlAe3lSp9QUHbHIh8HM2-47">
          <mxGeometry y="180.16279069767444" width="17.142857142857146" height="73.83720930232559" as="geometry" />
        </mxCell>
        <mxCell id="KlAe3lSp9QUHbHIh8HM2-42" value="&lt;font face=&quot;simsun&quot;&gt;&lt;span style=&quot;&quot;&gt;&lt;b&gt;删除的叶子结&lt;br&gt;点位置信息&lt;/b&gt;&lt;/span&gt;&lt;/font&gt;" style="text;html=1;strokeColor=none;fillColor=none;align=center;verticalAlign=middle;whiteSpace=wrap;rounded=0;" vertex="1" parent="KlAe3lSp9QUHbHIh8HM2-47">
          <mxGeometry x="12.86" y="204.16" width="87.14" height="31.38" as="geometry" />
        </mxCell>
        <mxCell id="KlAe3lSp9QUHbHIh8HM2-50" value="&lt;font face=&quot;Times New Roman&quot;&gt;&lt;span style=&quot;font-size: 15px;&quot;&gt;(b) LeafFile&lt;/span&gt;&lt;/font&gt;" style="text;html=1;strokeColor=none;fillColor=none;align=center;verticalAlign=middle;whiteSpace=wrap;rounded=0;" vertex="1" parent="KlAe3lSp9QUHbHIh8HM2-43">
          <mxGeometry x="45" y="-110" width="110" height="30" as="geometry" />
        </mxCell>
        <mxCell id="KlAe3lSp9QUHbHIh8HM2-45" value="" style="group" vertex="1" connectable="0" parent="1">
          <mxGeometry x="-540" y="90" width="110" height="280" as="geometry" />
        </mxCell>
        <mxCell id="KlAe3lSp9QUHbHIh8HM2-25" value="&lt;font face=&quot;simsun&quot; style=&quot;font-size: 12px;&quot;&gt;&lt;b style=&quot;font-size: 12px;&quot;&gt;根结点&lt;/b&gt;&lt;/font&gt;" style="text;html=1;strokeColor=none;fillColor=none;align=center;verticalAlign=middle;whiteSpace=wrap;rounded=0;fontSize=12;" vertex="1" parent="KlAe3lSp9QUHbHIh8HM2-45">
          <mxGeometry x="0.666666666666667" y="-2" width="49.99999999999999" height="21.761658031088082" as="geometry" />
        </mxCell>
        <mxCell id="KlAe3lSp9QUHbHIh8HM2-26" value="&lt;font face=&quot;simsun&quot; style=&quot;font-size: 12px;&quot;&gt;&lt;span style=&quot;font-size: 12px;&quot;&gt;&lt;b style=&quot;font-size: 12px;&quot;&gt;结点个数N&lt;/b&gt;&lt;/span&gt;&lt;/font&gt;" style="text;html=1;strokeColor=none;fillColor=none;align=center;verticalAlign=middle;whiteSpace=wrap;rounded=0;fontSize=12;" vertex="1" parent="KlAe3lSp9QUHbHIh8HM2-45">
          <mxGeometry x="0.666666666666667" y="29.740932642487042" width="68.33333333333334" height="21.761658031088082" as="geometry" />
        </mxCell>
        <mxCell id="KlAe3lSp9QUHbHIh8HM2-27" value="" style="shape=curlyBracket;whiteSpace=wrap;html=1;rounded=1;flipH=1;labelPosition=right;verticalLabelPosition=middle;align=left;verticalAlign=middle;size=0.5;fontSize=12;" vertex="1" parent="KlAe3lSp9QUHbHIh8HM2-45">
          <mxGeometry y="62.38341968911916" width="16.666666666666664" height="101.55440414507771" as="geometry" />
        </mxCell>
        <mxCell id="KlAe3lSp9QUHbHIh8HM2-28" value="&lt;font face=&quot;simsun&quot; style=&quot;font-size: 12px;&quot;&gt;&lt;span style=&quot;font-size: 12px;&quot;&gt;&lt;b style=&quot;font-size: 12px;&quot;&gt;非叶结点信息&lt;/b&gt;&lt;/span&gt;&lt;/font&gt;" style="text;html=1;strokeColor=none;fillColor=none;align=center;verticalAlign=middle;whiteSpace=wrap;rounded=0;fontSize=12;" vertex="1" parent="KlAe3lSp9QUHbHIh8HM2-45">
          <mxGeometry x="8.666666666666664" y="104.09326424870466" width="91.66666666666666" height="18.134715025906733" as="geometry" />
        </mxCell>
        <mxCell id="KlAe3lSp9QUHbHIh8HM2-31" value="&lt;font face=&quot;simsun&quot; style=&quot;font-size: 12px;&quot;&gt;&lt;span style=&quot;font-size: 12px;&quot;&gt;&lt;b style=&quot;font-size: 12px;&quot;&gt;删除的结点个数&lt;/b&gt;&lt;/span&gt;&lt;/font&gt;" style="text;html=1;strokeColor=none;fillColor=none;align=center;verticalAlign=middle;whiteSpace=wrap;rounded=0;fontSize=12;" vertex="1" parent="KlAe3lSp9QUHbHIh8HM2-45">
          <mxGeometry x="-4.5" y="174.8186528497409" width="110" height="21.761658031088082" as="geometry" />
        </mxCell>
        <mxCell id="KlAe3lSp9QUHbHIh8HM2-32" value="" style="shape=curlyBracket;whiteSpace=wrap;html=1;rounded=1;flipH=1;labelPosition=right;verticalLabelPosition=middle;align=left;verticalAlign=middle;size=0.5;fontSize=12;" vertex="1" parent="KlAe3lSp9QUHbHIh8HM2-45">
          <mxGeometry y="207.46113989637303" width="16.666666666666664" height="72.53886010362693" as="geometry" />
        </mxCell>
        <mxCell id="KlAe3lSp9QUHbHIh8HM2-33" value="&lt;font face=&quot;simsun&quot; style=&quot;font-size: 12px;&quot;&gt;&lt;span style=&quot;font-size: 12px;&quot;&gt;&lt;b style=&quot;font-size: 12px;&quot;&gt;删除的结点&lt;br style=&quot;font-size: 12px;&quot;&gt;位置信息&lt;/b&gt;&lt;/span&gt;&lt;/font&gt;" style="text;html=1;strokeColor=none;fillColor=none;align=center;verticalAlign=middle;whiteSpace=wrap;rounded=0;fontSize=12;" vertex="1" parent="KlAe3lSp9QUHbHIh8HM2-45">
          <mxGeometry x="15" y="232.85" width="75" height="21.76" as="geometry" />
        </mxCell>
        <mxCell id="KlAe3lSp9QUHbHIh8HM2-49" value="&lt;font style=&quot;font-size: 15px;&quot; face=&quot;Times New Roman&quot;&gt;(a) TreeNodeFile&lt;/font&gt;" style="text;html=1;strokeColor=none;fillColor=none;align=center;verticalAlign=middle;whiteSpace=wrap;rounded=0;" vertex="1" parent="1">
          <mxGeometry x="-675" y="390" width="110" height="30" as="geometry" />
        </mxCell>
      </root>
    </mxGraphModel>
  </diagram>
</mxfile>
